<svg width="4868" height="4868" viewBox="0 0 4868 4868" fill="none" xmlns="http://www.w3.org/2000/svg">
<path d="M4316.14 2936.58C4037.26 3977.36 2967.46 4595.02 1926.67 4316.14C885.881 4037.26 268.229 2967.46 547.108 1926.67C825.986 885.88 1895.79 268.228 2936.58 547.107C3977.37 825.986 4595.02 1895.79 4316.14 2936.58Z" fill="#0D5D59"/>
<path fill-rule="evenodd" clip-rule="evenodd" d="M2763.37 2574.11C2872.14 2434.18 2948.06 2261.74 2991.14 2056.79L3312.39 2745.49C3107.43 3130.05 2784.8 3507.84 2344.53 3878.86L1819.05 3659.74C2056.92 3496.45 2308.14 3232.48 2572.7 2867.86L2070.37 2764.23C1944.51 2948.11 1770.86 3124.68 1549.44 3293.96L1033.29 3087.55C1244.75 2945.68 1418.39 2786.17 1554.23 2609.03C1283.76 2512.18 1108.86 2378.71 1029.52 2208.64C952.06 2037.69 947.292 1873.78 1015.22 1716.94C1085.02 1559.22 1195.61 1445.05 1347 1374.43C1500.26 1302.95 1672.94 1297.5 1865.04 1358.08C2056.28 1416.8 2209.56 1547.83 2324.9 1751.18C2440.23 1954.53 2420.82 2193.42 2266.65 2467.87L2763.37 2574.11ZM1574.67 2162.57C1613.03 2244.8 1673.26 2303.18 1755.36 2337.71C1845.96 2195.32 1899 2060.21 1914.47 1932.39C1931.81 1803.68 1904.48 1723.13 1832.47 1690.73C1762.33 1657.45 1692.24 1707.21 1622.2 1840.01C1551.29 1970.95 1535.44 2078.46 1574.67 2162.57Z" fill="white"/>
<path d="M2585.04 1718.26L3120.92 1468.3L3893.43 3124.42L3357.55 3374.38L2585.04 1718.26ZM2304.12 1116.04L2840 866.076L3050.69 1317.74L2514.81 1567.71L2304.12 1116.04Z" fill="white"/>
</svg>
