<svg width="431" height="454" viewBox="0 0 431 454" fill="none" xmlns="http://www.w3.org/2000/svg">
<path d="M216.063 147.624C173.885 147.624 143.113 155.715 123.748 171.896C104.384 188.078 94.7012 213.014 94.7012 246.703C94.7012 280.393 104.649 305.063 124.544 320.714C144.174 336.365 174.415 344.19 215.267 344.19H264.608V425.761L311.363 429.741L311.561 147.624H216.063ZM210.094 301.614C184.098 301.614 166.457 296.707 157.173 286.892C147.623 276.811 142.848 262.221 142.848 243.122C142.848 223.757 148.817 210.096 160.754 202.137C172.691 194.179 191.393 190.2 216.859 190.2H264.608V301.614H210.094Z" fill="#055D59"/>
<path d="M240.734 0C271.24 2.42721e-05 298.265 4.64233 321.808 13.9268C345.35 22.8797 365.081 35.3142 380.997 51.2305C397.245 67.1467 409.513 86.0478 417.803 107.933C426.092 129.486 430.237 153.028 430.237 178.561C430.237 203.098 426.922 225.647 420.29 246.205C413.658 266.432 404.539 283.841 392.934 298.431C381.66 313.02 368.065 324.46 352.148 332.75C336.564 340.708 319.818 344.688 301.912 344.688C293.291 344.687 285.665 344.19 279.033 343.195C276.607 342.71 274.38 342.202 272.354 341.672C282.547 333.196 291.641 322.932 299.326 311.254C301.719 313.315 305.399 314.347 310.368 314.347C321.642 314.347 331.922 310.699 341.206 303.404C350.822 296.109 359.112 286.327 366.075 274.059C373.038 261.458 378.51 247.2 382.489 231.284C386.468 215.036 388.457 198.125 388.457 180.551C388.457 159.661 385.142 140.262 378.51 122.356C372.21 104.451 362.76 89.0316 350.159 76.0996C337.89 62.836 322.637 52.3912 304.399 44.7646C286.494 37.1381 265.935 33.3252 242.724 33.3252C214.87 33.3252 188.674 38.1329 164.137 47.749C139.599 57.0335 118.212 71.126 99.9746 90.0264C81.7372 108.595 67.313 131.973 56.7021 160.158C46.0913 188.012 40.7852 220.508 40.7852 257.646C40.7852 287.82 45.5939 313.187 55.21 333.745C65.1576 354.304 77.9241 370.883 93.5088 383.483C109.425 396.084 127.165 405.036 146.729 410.342C166.624 415.979 186.353 418.798 205.917 418.798C227.139 418.798 245.21 416.808 260.132 412.829C275.053 409.182 289.147 404.705 302.41 399.399L311.362 430.237C297.436 436.206 280.691 441.512 261.127 446.154C241.895 450.797 220.839 453.117 197.959 453.117C173.421 453.117 149.215 449.635 125.341 442.672C101.798 435.708 80.7418 424.434 62.1729 408.85C43.604 393.597 28.5167 373.701 16.9111 349.164C5.63708 324.958 0 295.28 0 260.132C2.07427e-05 216.694 6.96393 178.727 20.8906 146.231C34.8174 113.736 53.0544 86.7106 75.6025 65.1572C98.4822 43.2724 124.181 27.0249 152.697 16.4141C181.546 5.47162 210.891 0 240.734 0Z" fill="#055D59"/>
</svg>
